<svg xmlns="http://www.w3.org/2000/svg" version="1.1" xmlns:xlink="http://www.w3.org/1999/xlink" xmlns:svgjs="http://svgjs.dev/svgjs" width="512" height="512"><svg id="SvgjsSvg1003" data-name="Layer 2" xmlns="http://www.w3.org/2000/svg" viewBox="0 0 512 512">
  <defs>
    <style>
      .cls-1 {
        fill: #33332e;
      }

      .cls-2 {
        fill: #d3b172;
      }
    </style>
  </defs>
  <g id="SvgjsG1002" data-name="Layer 1">
    <g>
      <rect class="cls-1" width="512" height="512"></rect>
      <path class="cls-2" d="M439.92,354.72l.43-112.59-115.74-116.67-48.2,47.72-20.42-20.16-20.42,20.16-48.18-47.72-115.76,116.67.43,112.59h-34.58v31.82h41.45v-24.98h130.32v18.13h-63.55v-14.48h-6.84v21.33h77.24v-31.82h-39.97v-113.19l79.86-78.92,79.86,78.92h0v113.18h-39.97v31.82h77.24v-21.33h-6.84v14.48h-63.55v-18.13h130.32v24.98h41.45v-31.82h-34.58ZM72.1,379.7h-27.76v-18.13h27.76v18.13ZM92.41,354.72h-13.48l-.43-109.79,108.94-109.81,9.18,9.09-80.31,79.97h-.66v.65l-23.24,23.14v106.74ZM115.64,234.5v90.89h-16.39v-74.57l16.39-16.33ZM138.87,354.72h-39.62v-22.48h39.62v22.48ZM169.29,354.72h-23.58v-83.12l23.58-23.3v106.42ZM138.87,268.73v56.67h-16.38v-97.71l78.98-78.66,29.23,28.96-91.83,90.74ZM281.3,177.99l29.23-28.96,78.99,78.66v97.71h-16.39v-56.67l-91.83-90.74ZM366.29,354.72h-23.58v-106.42l23.58,23.3v83.12ZM412.75,354.72h-39.62v-22.48h39.62v22.48ZM412.75,325.4h-16.39v-90.89l16.39,16.33v74.57ZM433.08,354.72h-13.48v-106.74l-23.24-23.14v-.65h-.66l-80.31-79.98h0s9.17-9.09,9.17-9.09l108.94,109.81-.43,109.79ZM467.66,379.7h-27.76v-18.13h27.76v18.13Z"></path>
    </g>
  </g>
</svg><style>@media (prefers-color-scheme: light) { :root { filter: none; } }
@media (prefers-color-scheme: dark) { :root { filter: none; } }
</style></svg>