<?xml version="1.0" encoding="UTF-8"?>
<svg id="Layer_2" data-name="Layer 2" xmlns="http://www.w3.org/2000/svg" viewBox="0 0 1921 701">
  <defs>
    <style>
      .cls-1 {
        fill: none;
        stroke: #d3b172;
        stroke-miterlimit: 10;
      }

      .cls-2 {
        opacity: .1;
      }
    </style>
  </defs>
  <g id="Layer_1-2" data-name="Layer 1">
    <g class="cls-2">
      <rect class="cls-1" x=".5" y=".5" width="1920" height="700"/>
      <line class="cls-1" x1=".5" y1="659.32" x2="1920.5" y2="659.32"/>
      <line class="cls-1" x1=".5" y1="618.15" x2="1920.5" y2="618.15"/>
      <line class="cls-1" x1=".5" y1="576.97" x2="1920.5" y2="576.97"/>
      <line class="cls-1" x1=".5" y1="535.79" x2="1920.5" y2="535.79"/>
      <line class="cls-1" x1=".5" y1="494.62" x2="1920.5" y2="494.62"/>
      <line class="cls-1" x1=".5" y1="453.44" x2="1920.5" y2="453.44"/>
      <line class="cls-1" x1=".5" y1="412.26" x2="1920.5" y2="412.26"/>
      <line class="cls-1" x1=".5" y1="371.09" x2="1920.5" y2="371.09"/>
      <line class="cls-1" x1=".5" y1="329.91" x2="1920.5" y2="329.91"/>
      <line class="cls-1" x1=".5" y1="288.74" x2="1920.5" y2="288.74"/>
      <line class="cls-1" x1=".5" y1="247.56" x2="1920.5" y2="247.56"/>
      <line class="cls-1" x1=".5" y1="206.38" x2="1920.5" y2="206.38"/>
      <line class="cls-1" x1=".5" y1="165.21" x2="1920.5" y2="165.21"/>
      <line class="cls-1" x1=".5" y1="124.03" x2="1920.5" y2="124.03"/>
      <line class="cls-1" x1=".5" y1="82.85" x2="1920.5" y2="82.85"/>
      <line class="cls-1" x1=".5" y1="41.68" x2="1920.5" y2="41.68"/>
      <line class="cls-1" x1="1881.32" y1=".5" x2="1881.32" y2="700.5"/>
      <line class="cls-1" x1="1842.13" y1=".5" x2="1842.13" y2="700.5"/>
      <line class="cls-1" x1="1802.95" y1=".5" x2="1802.95" y2="700.5"/>
      <line class="cls-1" x1="1763.77" y1=".5" x2="1763.77" y2="700.5"/>
      <line class="cls-1" x1="1724.58" y1=".5" x2="1724.58" y2="700.5"/>
      <line class="cls-1" x1="1685.4" y1=".5" x2="1685.4" y2="700.5"/>
      <line class="cls-1" x1="1646.21" y1=".5" x2="1646.21" y2="700.5"/>
      <line class="cls-1" x1="1607.03" y1=".5" x2="1607.03" y2="700.5"/>
      <line class="cls-1" x1="1567.85" y1=".5" x2="1567.85" y2="700.5"/>
      <line class="cls-1" x1="1528.66" y1=".5" x2="1528.66" y2="700.5"/>
      <line class="cls-1" x1="1489.48" y1=".5" x2="1489.48" y2="700.5"/>
      <line class="cls-1" x1="1450.3" y1=".5" x2="1450.3" y2="700.5"/>
      <line class="cls-1" x1="1411.11" y1=".5" x2="1411.11" y2="700.5"/>
      <line class="cls-1" x1="1371.93" y1=".5" x2="1371.93" y2="700.5"/>
      <line class="cls-1" x1="1332.74" y1=".5" x2="1332.74" y2="700.5"/>
      <line class="cls-1" x1="1293.56" y1=".5" x2="1293.56" y2="700.5"/>
      <line class="cls-1" x1="1254.38" y1=".5" x2="1254.38" y2="700.5"/>
      <line class="cls-1" x1="1215.19" y1=".5" x2="1215.19" y2="700.5"/>
      <line class="cls-1" x1="1176.01" y1=".5" x2="1176.01" y2="700.5"/>
      <line class="cls-1" x1="1136.83" y1=".5" x2="1136.83" y2="700.5"/>
      <line class="cls-1" x1="1097.64" y1=".5" x2="1097.64" y2="700.5"/>
      <line class="cls-1" x1="1058.46" y1=".5" x2="1058.46" y2="700.5"/>
      <line class="cls-1" x1="1019.28" y1=".5" x2="1019.28" y2="700.5"/>
      <line class="cls-1" x1="980.09" y1=".5" x2="980.09" y2="700.5"/>
      <line class="cls-1" x1="940.91" y1=".5" x2="940.91" y2="700.5"/>
      <line class="cls-1" x1="901.72" y1=".5" x2="901.72" y2="700.5"/>
      <line class="cls-1" x1="862.54" y1=".5" x2="862.54" y2="700.5"/>
      <line class="cls-1" x1="823.36" y1=".5" x2="823.36" y2="700.5"/>
      <line class="cls-1" x1="784.17" y1=".5" x2="784.17" y2="700.5"/>
      <line class="cls-1" x1="744.99" y1=".5" x2="744.99" y2="700.5"/>
      <line class="cls-1" x1="705.81" y1=".5" x2="705.81" y2="700.5"/>
      <line class="cls-1" x1="666.62" y1=".5" x2="666.62" y2="700.5"/>
      <line class="cls-1" x1="627.44" y1=".5" x2="627.44" y2="700.5"/>
      <line class="cls-1" x1="588.26" y1=".5" x2="588.26" y2="700.5"/>
      <line class="cls-1" x1="549.07" y1=".5" x2="549.07" y2="700.5"/>
      <line class="cls-1" x1="509.89" y1=".5" x2="509.89" y2="700.5"/>
      <line class="cls-1" x1="470.7" y1=".5" x2="470.7" y2="700.5"/>
      <line class="cls-1" x1="431.52" y1=".5" x2="431.52" y2="700.5"/>
      <line class="cls-1" x1="392.34" y1=".5" x2="392.34" y2="700.5"/>
      <line class="cls-1" x1="353.15" y1=".5" x2="353.15" y2="700.5"/>
      <line class="cls-1" x1="313.97" y1=".5" x2="313.97" y2="700.5"/>
      <line class="cls-1" x1="274.79" y1=".5" x2="274.79" y2="700.5"/>
      <line class="cls-1" x1="235.6" y1=".5" x2="235.6" y2="700.5"/>
      <line class="cls-1" x1="196.42" y1=".5" x2="196.42" y2="700.5"/>
      <line class="cls-1" x1="157.23" y1=".5" x2="157.23" y2="700.5"/>
      <line class="cls-1" x1="118.05" y1=".5" x2="118.05" y2="700.5"/>
      <line class="cls-1" x1="78.87" y1=".5" x2="78.87" y2="700.5"/>
      <line class="cls-1" x1="39.68" y1=".5" x2="39.68" y2="700.5"/>
    </g>
  </g>
</svg>