<?xml version="1.0" encoding="UTF-8"?>
<svg id="Layer_2" data-name="Layer 2" xmlns="http://www.w3.org/2000/svg" viewBox="0 0 900 549.89">
  <defs>
    <style>
      .cls-1 {
        fill: #d3b172;
      }
    </style>
  </defs>
  <g id="Layer_1-2" data-name="Layer 1">
    <g>
      <path class="cls-1" d="M674.52,279.88l.53-137.45L533.76,0l-58.84,58.25-24.92-24.62-24.92,24.62L366.27,0l-141.32,142.43.53,137.45h-42.21v38.84h50.6v-30.49h159.08v22.14h-77.58v-17.68h-8.35v26.04h94.29v-38.84h-48.79v-138.17l97.5-96.35,97.49,96.35h.01v138.17h-48.8v38.84h94.29v-26.04h-8.35v17.68h-77.58v-22.14h159.08v30.49h50.6v-38.84h-42.21ZM225.51,310.37h-33.89v-22.14h33.89v22.14ZM250.29,279.88h-16.46l-.53-134.02L366.3,11.81l11.2,11.1-98.04,97.63h-.8v.8l-28.37,28.25v130.3ZM278.66,133.12v110.96h-20.01v-91.03l20.01-19.93ZM307.01,279.88h-48.37v-27.44h48.37v27.44ZM344.15,279.88h-28.79v-101.47l28.79-28.45v129.92ZM307.01,174.9v69.18h-20v-119.28l96.42-96.02,35.69,35.35-112.11,110.77ZM480.88,64.13l35.69-35.35,96.43,96.02v119.28h-20v-69.18l-112.11-110.77ZM584.63,279.88h-28.78v-129.92l28.78,28.45v101.47ZM641.36,279.88h-48.37v-27.44h48.37v27.44ZM641.36,244.08h-20.01v-110.96l20.01,19.93v91.03ZM666.17,279.88h-16.45v-130.3l-28.37-28.25v-.8h-.8l-98.04-97.63h0s11.19-11.09,11.19-11.09l132.99,134.05-.53,134.02ZM708.38,310.37h-33.89v-22.14h33.89v22.14Z"/>
      <g>
        <path class="cls-1" d="M0,474.51v-103.22h14.55l33.08,52.22c7.66,12.1,13.63,22.97,18.53,33.54l.31-.15c-1.23-13.78-1.53-26.34-1.53-42.42v-43.18h12.56v103.22h-13.48l-32.77-52.38c-7.2-11.48-14.09-23.28-19.3-34.46l-.46.15c.77,13.02,1.07,25.42,1.07,42.57v44.1H0Z"/>
        <polygon class="cls-1" points="175.65 426.12 135.53 426.12 135.53 463.33 180.25 463.33 180.25 474.51 122.21 474.51 122.21 371.29 177.95 371.29 177.95 382.47 135.53 382.47 135.53 415.09 175.65 415.09 175.65 426.12"/>
        <path class="cls-1" d="M237.21,474.51l-26.19-103.22h14.09l12.25,52.22c3.06,12.87,5.82,25.73,7.66,35.68h.31c1.68-10.26,4.9-22.51,8.42-35.84l13.78-52.07h13.94l12.56,52.37c2.91,12.25,5.66,24.5,7.2,35.38h.31c2.14-11.33,5.05-22.82,8.27-35.68l13.63-52.07h13.63l-29.25,103.22h-13.94l-13.02-53.75c-3.22-13.17-5.36-23.28-6.74-33.69h-.31c-1.84,10.26-4.13,20.37-7.96,33.69l-14.7,53.75h-13.94Z"/>
        <path class="cls-1" d="M479.78,379.1c-6.13-5.52-15.77-8.58-28.95-8.58-10.72,0-19.14.92-25.57,1.99v101.99h13.32v-41.35c3.06.77,6.74.92,10.72.92,13.02,0,24.5-3.83,31.55-11.33,5.21-5.36,7.96-12.71,7.96-22.05s-3.37-16.7-9.04-21.59ZM449.62,423.36c-4.44,0-8.12-.31-11.03-1.07v-40.12c2.3-.61,6.74-1.07,12.56-1.07,14.7,0,24.35,6.58,24.35,20.21s-9.8,22.05-25.88,22.05Z"/>
        <path class="cls-1" d="M569.98,369.61c-27.56,0-47.93,21.44-47.93,54.21s19.14,52.38,46.4,52.38,47.94-18.84,47.94-54.37c0-30.63-18.23-52.22-46.4-52.22ZM569.22,465.32c-20.98,0-32.93-19.76-32.93-41.81s11.03-43.03,33.08-43.03,32.93,21.44,32.93,41.96c0,23.43-11.95,42.88-33.08,42.88Z"/>
        <rect class="cls-1" x="655.13" y="371.29" width="13.32" height="103.22"/>
        <path class="cls-1" d="M713.17,474.51v-103.22h14.55l33.08,52.22c7.66,12.1,13.63,22.97,18.53,33.54l.31-.15c-1.23-13.78-1.53-26.34-1.53-42.42v-43.18h12.56v103.22h-13.48l-32.77-52.38c-7.2-11.48-14.09-23.28-19.3-34.46l-.46.15c.77,13.02,1.07,25.42,1.07,42.57v44.1h-12.56Z"/>
        <polygon class="cls-1" points="854.98 382.62 823.58 382.62 823.58 371.29 900 371.29 900 382.62 868.45 382.62 868.45 474.51 854.98 474.51 854.98 382.62"/>
      </g>
      <g>
        <path class="cls-1" d="M207.18,528.89c3.81-1.01,6.68-2.86,8.61-5.54s2.9-5.68,2.9-9.01c0-2.9-.69-5.51-2.06-7.86-1.38-2.34-3.44-4.2-6.19-5.57s-6.08-2.06-9.99-2.06h-18.97v50.54h10.14v-19.69h4.78l11.15,19.69h11.73l-12.09-20.49ZM200.08,522.09h-8.47v-14.84h8.47c2.75,0,4.8.64,6.15,1.92,1.35,1.28,2.03,3.08,2.03,5.4s-.68,4.21-2.03,5.54c-1.35,1.33-3.4,1.99-6.15,1.99Z"/>
        <path class="cls-1" d="M309.95,510.69c-2.3-3.93-5.41-7.01-9.34-9.23-3.93-2.22-8.29-3.33-13.07-3.33s-9.07,1.11-13.03,3.33c-3.96,2.22-7.09,5.3-9.41,9.23-2.32,3.93-3.48,8.36-3.48,13.29s1.16,9.43,3.48,13.36c2.32,3.93,5.45,7.01,9.41,9.23,3.96,2.22,8.3,3.33,13.03,3.33s9.07-1.11,13.03-3.33c3.96-2.22,7.08-5.3,9.38-9.23,2.29-3.93,3.44-8.39,3.44-13.36s-1.15-9.35-3.44-13.29ZM301.01,532.88c-1.31,2.56-3.11,4.52-5.43,5.9-2.32,1.37-5,2.06-8.04,2.06s-5.73-.69-8.07-2.06c-2.34-1.38-4.16-3.34-5.47-5.9-1.3-2.56-1.96-5.53-1.96-8.91s.65-6.34,1.96-8.87c1.3-2.53,3.12-4.48,5.47-5.83,2.34-1.35,5.03-2.03,8.07-2.03s5.72.68,8.04,2.03c2.32,1.35,4.13,3.3,5.43,5.83,1.3,2.53,1.95,5.49,1.95,8.87s-.65,6.35-1.95,8.91Z"/>
        <path class="cls-1" d="M402.98,510.69c-2.29-3.93-5.41-7.01-9.34-9.23-3.93-2.22-8.29-3.33-13.07-3.33s-9.07,1.11-13.03,3.33c-3.96,2.22-7.09,5.3-9.41,9.23-2.32,3.93-3.48,8.36-3.48,13.29s1.16,9.43,3.48,13.36c2.32,3.93,5.45,7.01,9.41,9.23,3.96,2.22,8.3,3.33,13.03,3.33s9.07-1.11,13.03-3.33c3.96-2.22,7.08-5.3,9.38-9.23,2.29-3.93,3.44-8.39,3.44-13.36s-1.15-9.35-3.44-13.29ZM394.04,532.88c-1.3,2.56-3.11,4.52-5.43,5.9-2.32,1.37-5,2.06-8.04,2.06s-5.73-.69-8.07-2.06c-2.34-1.38-4.16-3.34-5.47-5.9-1.3-2.56-1.96-5.53-1.96-8.91s.65-6.34,1.96-8.87c1.31-2.53,3.12-4.48,5.47-5.83,2.34-1.35,5.03-2.03,8.07-2.03s5.72.68,8.04,2.03c2.32,1.35,4.13,3.3,5.43,5.83,1.3,2.53,1.96,5.49,1.96,8.87s-.65,6.35-1.96,8.91Z"/>
        <polygon class="cls-1" points="481.35 498.85 481.35 507.03 460.28 507.03 460.28 519.99 476.43 519.99 476.43 528.03 460.28 528.03 460.28 549.38 450.14 549.38 450.14 498.85 481.35 498.85"/>
        <rect class="cls-1" x="524.72" y="498.85" width="10.13" height="50.54"/>
        <polygon class="cls-1" points="624.26 549.38 614.13 549.38 591.18 514.71 591.18 549.38 581.04 549.38 581.04 498.78 591.18 498.78 614.13 533.53 614.13 498.78 624.26 498.78 624.26 549.38"/>
        <path class="cls-1" d="M705.64,514.05c-1.16-2.12-2.75-3.74-4.78-4.85-2.03-1.11-4.39-1.67-7.09-1.67-2.99,0-5.65.68-7.96,2.03s-4.13,3.28-5.43,5.79c-1.3,2.51-1.96,5.41-1.96,8.69s.66,6.32,1.99,8.83,3.17,4.44,5.54,5.79c2.36,1.35,5.12,2.03,8.25,2.03,3.86,0,7.02-1.03,9.48-3.08,2.46-2.05,4.08-4.91,4.85-8.58h-17.38v-7.75h27.37v8.83c-.68,3.52-2.13,6.78-4.35,9.77-2.22,2.99-5.08,5.4-8.58,7.2-3.5,1.81-7.42,2.72-11.76,2.72-4.88,0-9.28-1.1-13.21-3.3-3.93-2.19-7.02-5.25-9.27-9.16-2.24-3.91-3.37-8.35-3.37-13.32s1.12-9.43,3.37-13.36c2.24-3.93,5.33-7,9.27-9.19,3.93-2.19,8.31-3.29,13.14-3.29,5.69,0,10.64,1.39,14.84,4.16,4.2,2.78,7.09,6.67,8.69,11.69h-11.65Z"/>
        <rect class="cls-1" x="1.42" y="523.12" width="156.05" height="2"/>
        <rect class="cls-1" x="742.53" y="523.12" width="156.05" height="2"/>
      </g>
    </g>
  </g>
</svg>